<?xml version="1.0" encoding="utf-8"?>
<!-- Generator: Adobe Illustrator 23.0.2, SVG Export Plug-In . SVG Version: 6.00 Build 0)  -->
<svg version="1.1" id="svg" xmlns="http://www.w3.org/2000/svg" xmlns:xlink="http://www.w3.org/1999/xlink" x="0px" y="0px"
	 viewBox="0 0 400 400" style="enable-background:new 0 0 400 400;" xml:space="preserve">
<style type="text/css">
	.st0{fill-rule:evenodd;clip-rule:evenodd;fill:#077CF8;}
	.st1{fill-rule:evenodd;clip-rule:evenodd;fill:#FFFFFF;}
</style>
<g id="svgg">
	<circle class="st0" cx="200.3" cy="200.3" r="189.4"/>
	<path id="path0" class="st1" d="M185.7,6.3c-38.5,3.8-68.4,14.3-96.5,34.1c-109.6,77-111.7,237.1-4.1,316.6
		c67.6,49.9,163.2,49.7,230.3-0.4c109.5-81.9,104.1-246.3-10.5-320.2C270.6,14.3,224.1,2.6,185.7,6.3 M213.9,25.7
		c24.8,6.7,42.1,29,42.1,54.4c0,14-6.4,32-18.8,53c-5.7,9.6-5.8,9.2,3.6,10.3c2.3,0.3,5.9,1,7.9,1.5c4.8,1.4,5.4,1.1,10.6-5.3
		c5.4-6.6,8.2-9.9,15.5-18.4c12.2-14.1,17.1-20,19.2-22.7c8.6-11.4,20.2-10.9,20.3,0.8c0,4.7-2.1,7.8-17.6,25.5
		c-8,9.1-21.3,25.3-21.6,26.3c-0.5,1.4,0.7,2.5,5.8,5.5c10.4,6.1,11.6,9.3,9.6,25c-2.1,16.3-4.1,24.4-8.5,33.2
		c-20.1,40.4-63.1,60.6-106.9,50.3c-33.4-7.9-61.2-36.1-68.3-69.3c-2.3-10.6-3-26.7-1.3-30.2c4.3-9.4,24.8-18.5,49.7-22.2
		c13.7-2,13-1,7.4-10.9c-21.1-37-23.7-60.4-9.4-82.9C165.6,29.7,191.3,19.6,213.9,25.7 M197.8,60c-16.9,2.6-23.7,22.4-11.8,34.1
		c17.3,16.8,43.9-6,30.1-25.8C212.3,62.9,203.9,59.1,197.8,60 M302.6,96.2c-2.1,1.1-6.3,5.5-10.8,11.3c-1.8,2.4-5.6,7-8.4,10.3
		s-11.5,13.8-19.2,23.3c-7.8,9.5-17.4,21.1-21.4,25.7c-15.9,18.4-22.9,27-22.9,28.2c0,1.1,1.3,1.3,5.8,0.8c5.1-0.6,4.4,0,12.6-9.7
		c3.5-4.1,8.6-10.2,11.3-13.5c2.8-3.3,6.7-8,8.7-10.3c6-7.1,18.3-21.7,30.5-36.3c6.3-7.5,12.6-15,14-16.5c5.1-5.5,6.8-9.1,5.9-11.9
		C307.9,95.2,305.6,94.6,302.6,96.2 M167.5,148c-38.7,4.5-63.9,17.8-54.9,29c9.7,12.1,50,21.1,90.7,20.2l7.1-0.2l2.9-3.1
		c1.6-1.7,4.5-5.1,6.6-7.5c2-2.4,6.8-8.2,10.7-12.8c18.2-21.8,17.7-21.1,16-22c-2.4-1.2-17.1-3.3-18.6-2.6
		c-0.6,0.3-4.4,5.1-8.6,10.8c-12.7,17.4-18.3,23.9-20.1,23c-1.8-1-17.9-21.2-23.9-30.1C172.3,148.2,171.2,147.6,167.5,148
		 M266.3,160.8c-1,1.1-5.5,6.6-10,12.1s-9.9,12-11.9,14.3c-6.2,7.1-5.8,7.2,9.4,3.4c31-7.8,40.2-20.5,21.3-29.8
		C269.5,158.2,268.6,158.2,266.3,160.8 M112.7,187c-3.6,1.2,6.8,28.3,15.1,39.5c42.3,56.6,129.9,41.8,151.9-25.7
		c4.4-13.5,4.2-14.4-2.6-11c-37,18.6-122.3,18.6-158.1,0.1C115.9,188.2,113.1,186.9,112.7,187 M65.8,286.7c3.8,7.8,3.9,7.8,7.7,0.3
		c3.2-6.2,3.5-6.6,6-6.6c3.4,0,3.3,0.7-0.8,8.5c-6.7,12.7-6.2,11.3-6.2,16.9c0,5.4-0.2,5.9-2.9,5.9c-2.8,0-3.2-0.7-3.3-6l-0.1-4.8
		l-4.5-9.5c-5.1-10.7-5.1-11.1-1.1-10.8l2.2,0.1L65.8,286.7 M297.1,287.7c1.2,0.4,1.3,0.7,1.2,2.5l-0.1,2l-3.9-0.2
		c-6.2-0.3-8.1,1.5-8,7.4c0.1,5.6,2.4,7.8,7.9,7.3c3.7-0.3,4.6,0.2,4,2.3c-1.1,4.4-12.3,3.7-15.9-0.9
		C274.1,297.5,284.6,282.9,297.1,287.7 M339.4,287.9c3,2,1,5.6-2.4,4.4c-6.7-2.3-8,1.5-1.7,4.7c12.4,6.2,4.7,18.4-8.9,14.1
		c-1.7-0.5-2.3-1.7-1.8-3.8c0.4-1.9,1.4-2.1,4-1c2.8,1.2,5,1.2,6.1,0c1.3-1.4,0-3.1-3.8-4.8c-6.8-3.1-8.2-8.8-3.1-12.7
		C330.8,286.7,336.8,286.1,339.4,287.9 M91.9,288.1c0.3,0.5,0.5,4.3,0.5,8.7c0,9.2,0.4,10.1,4.6,10.1c4.1,0,4.6-0.9,4.6-10
		c0-8.7,0.3-9.7,3.1-9.7c3.1,0,3.3,0.6,3,10c-0.2,5.4-0.6,8.9-1,10c-2.7,6.4-16.7,6.4-19.3,0c-0.9-2.1-1-18.5-0.1-19.3
		C88.2,286.8,91.4,287,91.9,288.1 M121.9,287.8c0.4,0.3,1.5,2.7,2.3,5.2c1.8,5.5,2.2,6.3,3.1,6.3c0.6,0,2.8-4.6,4.1-8.8
		c0.8-2.6,1.7-3.2,4.3-3.2c3.6,0,3.7,0.2,4.8,12.1c1,11.2,1,11.8-0.8,12.2c-2.6,0.7-3.4-0.3-3.8-5c-0.7-9.1-1.5-9.6-4.4-3.1
		c-3.4,7.9-6.2,8-9.1,0.4c-2.6-6.8-3.3-6.6-4.2,1.2c-0.7,6.2-2.9,8.7-4.9,5.5c-0.8-1.4,1.3-21.7,2.5-22.8
		C116.7,287,120.8,287,121.9,287.8 M155.5,288c0.4,0.5,1.4,2.9,2.3,5.5c2.4,7.4,2.9,7.4,5.8-0.1c2.2-5.8,2.7-6.2,5.9-6.2
		c3,0,3.1,0.3,4.2,10.4c1.4,13.6,1.2,14.8-2.2,13.9c-1.6-0.4-2-1.4-2.3-6.3c-0.6-8-1.3-8.4-3.9-2.3c-3.6,8.4-6.3,8.6-9.6,0.6
		c-1-2.4-2.1-4.4-2.4-4.4c-0.8,0-1.7,3.9-1.7,7.2c0,4.7-3.7,7.6-5,4c-0.6-1.4,1.8-21.6,2.7-22.6C150.1,286.8,154.6,287,155.5,288
		 M183.6,287.5c0.4,0.2,1.7,2.1,2.7,4.2c2.9,5.8,3.2,5.8,6.1,0.3c2.2-4.1,3.1-4.9,5.5-4.7c2.5,0.2,2.2,1.6-1.9,8.9
		c-3.6,6.5-3.7,6.7-4,10.6c-0.3,4.3-0.7,4.9-3,4.9c-2.1,0-2.8-1.1-2.8-4.8c0-2.9-0.2-3.8-1.9-6.9C178.2,288,178,285.4,183.6,287.5
		 M227.9,288.2c7.7,3.7,3.2,15.8-5.9,15.8c-2.5,0-3.1,0.8-3.4,4c-0.2,2.8-1,3.7-3.1,3.7c-2.7,0-2.8-0.5-2.8-12.3
		c0-9.1,0.1-10.9,0.8-11.5C214.7,286.7,225.2,286.9,227.9,288.2 M241.9,287.8c0.4,0.4,0.6,3.1,0.6,9c0,10-0.1,9.7,4.1,10
		c4.4,0.3,5.9,2,3.8,4.2c-0.9,0.9-11.2,1.1-12.7,0.3c-1.4-0.7-1.5-22.7-0.1-23.5C238.7,287,241.2,287.1,241.9,287.8 M268.3,288.1
		c1.1,1.1,7.6,21.4,7.2,22.4c-0.8,2.2-4.6,1.2-5.9-1.5l-0.9-1.8l-4.1-0.1c-4.5-0.1-4.8,0-5.6,2.5c-0.5,1.6-2.2,2.5-4.2,2
		c-1.8-0.4-1.7-1.1,1.4-9.8c4.2-12,4.7-13.1,5.4-13.8C262.7,286.8,267.3,287,268.3,288.1 M320.2,288c0.5,0.5,0.7,1.1,0.5,1.8
		c-0.6,2-1.1,2.2-5.5,2.2c-4.5,0-5.3,0.4-5.3,2.4c0,1.9,0.9,2.4,3.7,2.4c3.3,0,4.4,0.6,4.4,2.3c0,2-0.8,2.5-3.9,2.5
		c-3,0-4.7,1-4.7,2.9s1.3,2.4,5.7,2.4c4.6,0,5.4,0.4,5.4,2.5c0,2-1.2,2.3-8.6,2.3c-5.5,0-6.9-0.1-7.5-0.8
		c-0.9-0.9-1.1-21.2-0.3-22.8C304.8,286.8,318.9,286.7,320.2,288 M219.6,292.1c-1.5,1.8-1.1,6.8,0.6,7.4c3.4,1.3,6.9-4.3,4.2-6.7
		C223.1,291.7,220.2,291.2,219.6,292.1 M263.4,296.7c-1.4,3.4-1.4,4.9,0,5.2c3.5,0.9,4.5-0.9,3-4.9
		C265.3,294.4,264.3,294.3,263.4,296.7"/>
</g>
</svg>
